<svg viewBox="0 0 12 12" fill="none" xmlns="http://www.w3.org/2000/svg">
  <defs>
    <path id="icon-cube" d="M5.66406 2.05904C5.88125 1.98032 6.11875 1.98032 6.3375 2.05904L9.3375 3.13915C9.73438 3.28242 10 3.66188 10 4.08857V7.91143C10 8.33655 9.73438 8.71758 9.33594 8.86085L6.33594 9.94096C6.11875 10.0197 5.88125 10.0197 5.6625 9.94096L2.6625 8.86085C2.26563 8.71758 2 8.33812 2 7.91143V4.08857C2 3.66345 2.26562 3.28242 2.66406 3.13915L5.66406 2.05904V2.05904ZM6 3.00846L3.28594 3.98465L6 4.96083L8.71406 3.98465L6 3.00846ZM6.5 8.81204L9 7.91301V4.95296L6.5 5.852V8.81204Z" fill="currentColor"/>
    <path id="icon-angle-right-arrow" d="M8.41173 5.55881L5.02398 2.17705C4.96834 2.12095 4.90214 2.07642 4.8292 2.04603C4.75626 2.01564 4.67803 2 4.59902 2C4.52 2 4.44177 2.01564 4.36883 2.04603C4.29589 2.07642 4.22969 2.12095 4.17405 2.17705C4.06257 2.28919 4 2.44089 4 2.59902C4 2.75715 4.06257 2.90885 4.17405 3.02099L7.13684 6.01371L4.17405 8.97649C4.06257 9.08864 4 9.24034 4 9.39847C4 9.55659 4.06257 9.70829 4.17405 9.82044C4.22949 9.87699 4.29559 9.92199 4.36854 9.95281C4.44149 9.98363 4.51983 9.99967 4.59902 10C4.67821 9.99967 4.75655 9.98363 4.82949 9.95281C4.90244 9.92199 4.96855 9.87699 5.02398 9.82044L8.41173 6.43867C8.47249 6.38262 8.52098 6.3146 8.55414 6.23888C8.5873 6.16317 8.60442 6.0814 8.60442 5.99874C8.60442 5.91608 8.5873 5.83432 8.55414 5.7586C8.52098 5.68289 8.47249 5.61486 8.41173 5.55881V5.55881Z" fill="currentColor"/>
    <path id="icon-angle-left-arrow" d="M4.19269 6.44119L7.58044 9.82295C7.63608 9.87905 7.70228 9.92358 7.77522 9.95397C7.84816 9.98436 7.92639 10 8.00541 10C8.08442 10 8.16265 9.98436 8.23559 9.95397C8.30853 9.92358 8.37473 9.87905 8.43037 9.82295C8.54185 9.71081 8.60442 9.55911 8.60442 9.40098C8.60442 9.24285 8.54185 9.09115 8.43037 8.97901L5.46759 5.98629L8.43037 3.02351C8.54185 2.91136 8.60442 2.75966 8.60442 2.60153C8.60442 2.44341 8.54185 2.29171 8.43037 2.17956C8.37494 2.12301 8.30883 2.07801 8.23589 2.04719C8.16294 2.01637 8.0846 2.00033 8.00541 2C7.92622 2.00033 7.84788 2.01637 7.77493 2.04719C7.70198 2.07801 7.63588 2.12301 7.58044 2.17956L4.19269 5.56133C4.13194 5.61738 4.08345 5.6854 4.05028 5.76112C4.01712 5.83683 4 5.9186 4 6.00126C4 6.08392 4.01712 6.16568 4.05028 6.2414C4.08345 6.31711 4.13194 6.38514 4.19269 6.44119Z" fill="currentColor"/>
  </defs>
</svg>
