<svg xmlns="http://www.w3.org/2000/svg" viewBox="0 0 160 128"><defs><path id="logo-airbnb" fill="#fff" fill-rule="evenodd" d="M39.348 56.404H20.514v5.506h13.403c-.655 7.718-7.12 11.01-13.222 11.01-7.816 0-14.622-6.093-14.622-14.64 0-8.32 6.493-14.743 14.64-14.743 6.265 0 9.973 3.986 9.973 3.986l3.882-3.986S29.59 38 20.505 38C8.947 38 0 47.696 0 58.166c0 10.26 8.418 20.268 20.81 20.268 10.896 0 18.875-7.415 18.875-18.381 0-2.316-.348-3.656-.348-3.656m15.945-3.986c-7.66 0-13.16 5.953-13.16 12.88 0 7.033 5.327 13.09 13.247 13.09 7.171 0 13.037-5.448 13.037-12.95 0-8.616-6.84-13.055-13.124-13.055v.035Zm.07 5.1c3.76 0 7.328 3.029 7.328 7.903 0 4.77-3.569 7.885-7.364 7.885-4.177 0-7.467-3.325-7.467-7.92 0-4.508 3.255-7.868 7.485-7.868h.017Zm28.372-5.117c-7.676 0-13.16 5.953-13.16 12.88 0 7.033 5.327 13.09 13.23 13.09 7.154 0 13.037-5.448 13.037-12.95 0-8.617-6.84-13.055-13.124-13.055l.017.035Zm.07 5.1c3.76 0 7.328 3.028 7.328 7.902 0 4.77-3.568 7.885-7.363 7.885-4.178 0-7.485-3.324-7.485-7.92 0-4.508 3.255-7.867 7.485-7.867h.035Zm27.99-5.083c-7.033 0-12.568 6.11-12.568 12.985 0 7.816 6.406 13.003 12.428 13.003 3.725 0 5.71-1.48 7.172-3.168v2.559c0 4.473-2.75 7.171-6.893 7.171-4.004 0-6.005-2.959-6.702-4.63l-5.03 2.089c1.775 3.742 5.378 7.641 11.767 7.641 6.997 0 12.324-4.386 12.324-13.56V52.884h-5.447v2.524c-1.688-1.807-3.996-2.986-7.058-2.986l.007-.01Zm.504 5.083c3.447 0 6.981 2.924 6.981 7.92 0 5.065-3.534 7.867-7.068 7.867-3.759 0-7.241-3.01-7.241-7.815 0-4.996 3.621-7.972 7.311-7.972h.017Zm35.928-5.118c-6.632 0-12.202 5.24-12.202 12.968 0 8.181 6.196 13.038 12.828 13.038 5.536 0 8.93-3.012 10.967-5.71l-4.526-2.994c-1.184 1.81-3.133 3.569-6.406 3.569-3.69 0-5.378-2.002-6.423-3.952L160 62.072l-.923-2.107c-1.688-4.16-5.639-7.624-10.879-7.624l.018.035Zm.226 4.996c2.385 0 4.108 1.253 4.839 2.767l-11.715 4.857c-.504-3.777 3.081-7.642 6.876-7.642v.018Zm-20.451 20.263h5.366V39.34h-5.361l-.005 38.295Z" clip-rule="evenodd"/><path id="logo-netflix" fill="#fff" fill-rule="evenodd" d="M59.966 106.996c-12.51 0-24.156-3.594-33.966-9.753 1.735.2 3.492.305 5.285.305 10.382 0 19.937-3.476 27.518-9.295-9.695-.18-17.877-6.486-20.7-15.085 3.323.62 6.744.485 10.008-.395-10.137-2.006-17.773-10.785-17.773-21.284v-.25a22.402 22.402 0 0 0 10.037 2.687 21.632 21.632 0 0 1-7.226-7.788 21.513 21.513 0 0 1-2.631-10.271c0-3.978 1.094-7.704 2.999-10.93A63.195 63.195 0 0 0 53.952 41.07a63.477 63.477 0 0 0 25.238 6.55 21.372 21.372 0 0 1-.576-4.944C78.614 30.71 88.532 21 100.772 21c6.372 0 12.132 2.637 16.175 6.855a44.93 44.93 0 0 0 14.065-5.268 21.861 21.861 0 0 1-9.738 12.011A45.023 45.023 0 0 0 134 31.176a44.538 44.538 0 0 1-11.052 11.24c.036.932.061 1.871.061 2.81 0 28.701-22.284 61.774-63.043 61.774" clip-rule="evenodd"/><path id="logo-eventbrite" fill="#fff" fill-rule="evenodd" d="M137.852 62.041c-2.117 0-3.863 1.455-4.692 3.367.744.056 1.403.085 2.004.085 3.892 0 4.978-.884 4.978-1.968 0-.744-.772-1.484-2.288-1.484h-.002Zm-47.365.485c-1.487 0-2.833.884-3.691 2.17l-.42 1.987c-.42 2.214.775 4.073 3.151 4.073 2.554 0 3.96-2.457 3.96-4.962 0-2.036-1.277-3.28-2.974-3.28l-.026.012Zm45.018 5.45c-.856 0-1.802-.064-2.86-.13v.082c0 1.94 1.2 3.135 3.405 3.135 1.859 0 3.207-.824 4.122-2.02.056-.097 1.718.194 1.718 1.503 0 .727-.23 1.131-.773 1.713-1.06 1.019-2.72 1.649-5.124 1.649-4.58 0-6.756-2.505-6.756-5.932 0-5.059 3.896-8.68 8.788-8.68 3.549 0 5.525 1.65 5.525 4.074 0 2.844-1.832 4.558-8.045 4.558v.048Zm-8.214-5.172h-2.605l-1.228 5.706c-.375 1.68.198 2.392 1.314 2.392.716 0 1.346-.372 1.716-.712.113-.097.647.372.647 1.229 0 .598-.227 1.115-.695 1.568-.631.63-1.633.97-2.974.97-3.217 0-4.671-1.908-3.96-5.286l1.228-5.883h-.695c-.921 0-1.471-.404-1.471-1.067 0-.404.162-1.26.566-1.68.275-.26.598-.405 1.39-.405h.824l.178-.792c.404-2.069 1.229-2.91 3.006-2.91.857 0 1.52.34 1.487.486l-.678 3.216h2.345c.97 0 1.514.42 1.514 1.05 0 .389-.169 1.278-.598 1.682-.258.258-.598.404-1.374.404l.063.032Zm-11.346-5.269c-1.432 0-2.234-.711-2.234-1.746 0-1.373.944-2.343 2.347-2.343 1.432 0 2.231.711 2.231 1.73 0 1.34-.943 2.343-2.344 2.343v.016Zm.698 3.944-1.858 8.647c-.319 1.535-.06 2.133 1.115 2.311.027.016-.202 1.422-2.349 1.422-2.605 0-3.264-1.6-2.776-3.846l1.831-8.534c.317-1.455.831-1.94 1.859-1.94h.431c1.088 0 2.061.42 1.746 1.94h.001Zm-7.871 2.343c-.404-.436-.974-.84-1.947-.84-1.804 0-2.949 1.988-3.579 4.93l-.808 3.846c-.323 1.422-.824 1.907-1.859 1.907h-.436c-1.1 0-2.069-.436-1.746-1.923l2.538-11.977c.016-.08.485-.258 1.115-.258 1.148 0 2.263.614 2.231 2.44.856-1.68 2.133-2.683 3.765-2.683 1.39 0 2.489.792 2.489 1.972 0 1.972-1.745 2.586-1.81 2.538l.047.048ZM90.088 73.908c-2.062 0-3.866-1.002-4.724-2.716-.544 1.795-1.43 2.473-3.007 2.473-.77 0-1.43-.355-1.401-.485l3.766-17.795c.315-1.454.83-1.94 1.862-1.94h.457c1.059 0 2.061.453 1.717 1.94l-1.304 6.207c1.03-1.422 2.518-2.311 4.436-2.311 3.006 0 5.495 2.133 5.495 5.964 0 4.396-2.89 8.647-7.299 8.647l.002.016ZM79.466 62.772h-2.602l-1.232 5.705c-.372 1.681.2 2.392 1.316 2.392.716 0 1.344-.371 1.718-.71.113-.098.662.37.662 1.227 0 .599-.226 1.1-.678 1.568-.63.63-1.633.97-2.974.97-3.2 0-4.655-1.923-3.944-5.285l1.228-5.883h-.678c-.906 0-1.455-.404-1.455-1.067 0-.404.178-1.26.582-1.681.29-.259.598-.404 1.406-.404h.824l.178-.792c.404-2.069 1.228-2.926 3.006-2.926.873 0 1.52.34 1.503.485l-.678 3.217h2.36c.985 0 1.519.42 1.519 1.05 0 .388-.162 1.277-.599 1.681-.258.259-.597.404-1.373.404l-.09.049ZM68.33 72.178c.06 0-.227 1.649-2.431 1.649-1.891 0-2.777-.97-2.777-2.489 0-.808.259-1.859.687-3.426.372-1.326.63-2.409.63-3.007 0-1.438-.808-2.279-2.262-2.279-1.407 0-2.328.647-3.217 2.02l-1.487 7.064c-.323 1.422-.84 1.907-1.859 1.907h-.436c-1.099 0-2.069-.437-1.745-1.907l2.537-11.977c.016-.097.485-.258 1.115-.258 1.148 0 2.263.63 2.23 2.472 1.116-1.68 2.748-2.715 4.801-2.715 2.86 0 4.526 1.859 4.526 4.51 0 1.002-.356 2.36-.84 4.072-.373 1.39-.664 2.506-.664 3.071 0 .792.372 1.1 1.148 1.213l.044.08Zm-23.501-4.25c-.857 0-1.8-.049-2.86-.114v.081c0 1.94 1.202 3.136 3.406 3.136 1.859 0 3.205-.824 4.122-2.02.056-.097 1.716.194 1.716 1.503 0 .743-.226 1.147-.772 1.713-1.059 1.018-2.719 1.648-5.124 1.648-4.579 0-6.756-2.52-6.756-5.931 0-5.06 3.895-8.68 8.79-8.68 3.547 0 5.522 1.649 5.522 4.073 0 2.845-1.831 4.558-8.042 4.558l-.002.033ZM37.174 63.5l-5.9 9.035c-.657 1.028-1.745 1.199-2.517 1.199-1.031 0-2.09-.372-2.23-1.484l-1.148-7.93c-.286-2.168-.647-3.018-1.794-3.102-.057 0 .444-1.778 2.224-1.778.856 0 1.46.23 2.004.772.773.77 1.115 2.025 1.26 3.936l.513 5.204 5.665-9.86c.032-.048 2.78.082 2.78 1.973 0 .63-.226 1.115-.857 2.052v-.017Zm-17.493-1.878c1.088 0 1.66.457 1.66 1.168 0 .437-.199 1.374-.63 1.827-.286.29-.658.452-1.516.452h-6.11l-1.011 4.881h8.356c1.18 0 1.778.469 1.778 1.229 0 .484-.227 1.487-.687 1.971-.314.324-.716.453-1.633.453H9.787c-1.746 0-2.522-.889-2.118-2.683l3.225-15.276c.313-1.482 1.228-2.165 2.634-2.165h10.215c1.175 0 1.804.456 1.804 1.252 0 .453-.259 1.48-.716 1.94-.314.34-.687.452-1.633.452h-8.385l-.986 4.503h5.851l.003-.005Zm125.763-16.08L5.827 40C2.922 40 0 42.948 0 45.802l.003 36.635c0 2.913 2.942 5.825 5.845 5.825l139.593-5.537c3.127-.13 5.669-2.651 5.669-5.628V51.169c0-2.98-2.542-5.504-5.669-5.628l.003.003Zm-98.265 16.5c-2.117 0-3.863 1.454-4.695 3.365.743.056 1.403.085 2.004.085 3.892 0 4.978-.884 4.978-1.968 0-.744-.77-1.484-2.288-1.484l.001.002Zm109.26-13.577h.72c.425 0 .659-.197.659-.512 0-.34-.242-.501-.685-.501h-.695v1.034l.001-.02Zm1.19 1.438-.795-.989h-.388v.938c0 .15-.081.25-.233.25h-.073c-.153 0-.234-.097-.234-.274v-2.54c0-.189.116-.307.288-.307h.957c.775 0 1.208.316 1.208.962 0 .54-.342.883-.937.937l.873.998c.029.035-.097.226-.298.226a.481.481 0 0 1-.368-.2Zm1.886-1.347c0-1.484-1.067-2.591-2.489-2.591-1.455 0-2.465 1.066-2.465 2.586 0 1.487 1.064 2.586 2.489 2.586 1.455 0 2.465-1.05 2.465-2.57v-.011Zm-5.44.008c0-1.746 1.272-3.039 2.967-3.039 1.733 0 2.958 1.245 2.958 3.006 0 1.73-1.27 3.023-2.967 3.023-1.73 0-2.958-1.26-2.958-3.007v.017Z" clip-rule="evenodd"/><path id="logo-twitter" fill="#fff" fill-rule="evenodd" d="M21.946 43H15.21c-.015 9.15-.03 15.078-.042 24.228C12.274 58.301 9.377 52.39 6.47 43H0v42.901c2.183-.31 4.52-.609 6.707-.894l.02-23.444c3.01 8.825 4.859 14.034 7.86 22.419 2.352-.269 4.932-.599 7.289-.838.02-13.381.047-26.763.07-40.144Zm25.17 0h-18.67l-.074 39.579a569.907 569.907 0 0 1 18.75-1.391l.01-6.63c-4.066.248-7.958.51-12.011.785l.02-10.03c2.962-.051 6.089-.006 9.118-.058 0-1.94.006-4.721.01-6.661-2.992.053-6.15.062-9.1.115l.02-9.039c2.153-.023 4.306-.032 6.46-.025h.949c1.527 0 3.033 0 4.581-.016.02-1.93-.041-4.7-.041-6.629m25.157.029H51.49c-.006 1.92-.008 4.678-.012 6.594l.896-.021c.901 0 1.805 0 2.707.02h3.401l-.04 30.977c2.25-.082 4.5-.15 6.752-.206l.029-30.812 7.047-.02v-6.54M95.386 43H76.647l-.008 37.255c2.226-.01 4.452-.006 6.678.012 0-5.269 0-10.08-.004-15.35 1.254.005 2.507.004 3.76-.004a578.9 578.9 0 0 1 2.667-.008c.912 0 1.816.004 2.7.016l-.005-6.587c-.85-.01-1.699-.014-2.549-.013-.922 0-1.857 0-2.782.006l-2.759.007h-1.032c-.004-3.39-.004-5.304-.004-8.689 1.468.002 2.936.002 4.404 0h2.23c1.811 0 3.623 0 5.451.008L95.386 43Zm4.375.031c.021 12.537-.04 25.074-.026 37.614 5.993.227 12.289.474 18.274.887l-.01-6.624c-3.789-.228-7.733-.475-11.522-.64-.021-10.732.041-20.473.025-31.204h-6.74m23.778 0 .076 38.902c2.216.168 4.431.347 6.645.536 0-13.125.021-26.292 0-39.438h-6.727m12.506 0c2.683 6.563 5.159 13.125 7.883 20.1a1405.27 1405.27 0 0 1-8.585 19.75c2.353.248 4.788.579 7.141.847 1.671-4.127 3.219-7.306 4.912-11.557 1.671 4.52 3.198 8.028 4.891 12.692 2.332.31 5.386.743 7.718 1.073-2.853-7.59-5.784-15.15-8.792-22.68 2.848-6.728 5.758-13.167 8.709-20.204h-7.346c-1.837 4.354-3.075 7.16-4.83 11.288a953.15 953.15 0 0 0-4.334-11.309h-7.367" clip-rule="evenodd"/><path id="logo-google" fill="#fff" fill-rule="evenodd" d="M43.145 79.44a7.429 7.429 0 0 1-4.549 5.848c-1.198.501-2.5.65-3.798.501A9.852 9.852 0 0 1 31 84.485c-1.802-1-3.597-2.557-5.697-4.843 3.297-4.048 5.295-7.756 6.045-11.059.326-1.392.41-2.83.251-4.25a8.12 8.12 0 0 0-1.351-3.404c-1.55-2.253-4.15-3.556-7.045-3.556-2.901 0-5.5 1.354-7.05 3.539a8.127 8.127 0 0 0-1.351 3.387 10.405 10.405 0 0 0 .237 4.25c.745 3.303 2.794 7.045 6.045 11.093-2.049 2.286-3.912 3.844-5.707 4.843a9.848 9.848 0 0 1-3.81 1.304 7.998 7.998 0 0 1-3.793-.491 7.434 7.434 0 0 1-4.556-5.843 8.281 8.281 0 0 1 .457-3.912c.136-.508.39-.999.644-1.608.339-.796.745-1.643 1.151-2.507l.051-.101A548.549 548.549 0 0 1 16.53 48.905l.152-.305c.39-.762.796-1.558 1.203-2.303.375-.785.84-1.524 1.388-2.201 1.05-1.186 2.456-1.846 3.997-1.846 1.54 0 2.947.66 3.997 1.846.541.66.999 1.405 1.405 2.201.407.762.813 1.558 1.202 2.303l.153.305a663.018 663.018 0 0 1 10.94 22.506v.051c.39.796.745 1.694 1.151 2.49.237.592.491 1.1.644 1.591.39 1.304.542 2.558.338 3.845l.046.052Zm-19.942-2.35c-2.701-3.4-4.45-6.598-5.052-9.297-.25-1.152-.3-2.151-.149-3.049a4.86 4.86 0 0 1 .796-2.1c.948-1.35 2.54-2.201 4.403-2.201 1.846 0 3.489.8 4.386 2.201.39.6.695 1.3.796 2.1.136.898.102 1.948-.152 3.049-.61 2.648-2.354 5.847-5.047 9.297h.019Zm22.54-2.6c-.247-.6-.498-1.248-.749-1.798-.4-.898-.799-1.751-1.148-2.549l-.05-.05a521.44 521.44 0 0 0-11.049-22.595l-.149-.3c-.41-.774-.811-1.553-1.202-2.337-.498-.897-.996-1.846-1.795-2.743C27.995 40.1 25.697 39 23.25 39c-2.502 0-4.751 1.1-6.402 2.998-.749.9-1.299 1.85-1.799 2.751-.4.8-.8 1.6-1.199 2.35l-.152.299c-3.844 7.485-7.594 15.089-11.041 22.59l-.051.103c-.35.795-.75 1.642-1.152 2.54-.254.542-.5 1.151-.75 1.795-.652 1.846-.85 3.607-.601 5.402a10.623 10.623 0 0 0 6.503 8.298c1.281.537 2.658.807 4.047.796.4 0 .898-.05 1.3-.102a13.212 13.212 0 0 0 4.998-1.71c2.05-1.152 3.997-2.811 6.198-5.199 2.185 2.388 4.2 4.047 6.198 5.199a13.213 13.213 0 0 0 6.3 1.795c1.389 0 2.794-.254 4.048-.813 3.488-1.388 5.944-4.59 6.486-8.298.39-1.744.186-3.488-.458-5.351l.019.047Zm49.839-17.595c1.45 0 2.201.25 2.201.25v4.45s-4-1.35-6.502 1.498V76.24h-4.793V57.395h4.047c.4 0 .702.35.702.699v.8c.9-1.049 2.848-1.997 4.348-1.997l-.003-.002Zm12.997 15.246c-1.849 0-3.302-.948-4.047-2.049v-6.697c.745-1 2.347-2.05 4.047-2.05 3.201 0 5.648 1.999 5.648 5.398 0 3.4-2.449 5.398-5.648 5.398Zm.8-15.246c-3.299 0-4.849 1.998-4.849 1.998V48.348h-4.8v27.84h4.048a.714.714 0 0 0 .701-.697v-.85s1.55 2.049 4.851 2.049c5.446 0 9.696-4.2 9.696-9.897.051-5.698-4.199-9.898-9.647-9.898Zm28.845 8.15V76.24h-4.803V65.593c0-3.1-.999-4.35-3.699-4.35-1.448 0-2.946.751-3.898 1.85V76.19h-4.799V57.408h3.8c.399 0 .699.35.699.7v.8c1.406-1.45 3.252-1.998 5.115-1.998 2.099 0 3.844.598 5.249 1.795 1.694 1.403 2.354 3.2 2.354 6.35l-.018-.01Zm11.346 7.096c-1.851 0-3.302-.948-4.051-2.049v-6.697c.749-1 2.349-2.05 4.051-2.05 3.197 0 5.648 1.999 5.648 5.398 0 3.4-2.451 5.398-5.648 5.398Zm.796-15.246c-3.297 0-4.847 1.998-4.847 1.998V48.348h-4.799v27.84h4.047a.714.714 0 0 0 .703-.697v-.85s1.541 2.049 4.843 2.049c5.453 0 9.687-4.2 9.687-9.897 0-5.698-4.251-9.898-9.653-9.898h.019ZM78.688 76.189h4.797V57.395h-4.797v18.794Zm-7.748-6.046c-.762 1.1-2.252 2.05-4.047 2.05-3.2 0-5.656-2-5.656-5.4 0-3.399 2.438-5.399 5.639-5.399 1.744 0 3.336 1 4.047 2.05v6.699h.017Zm0-12.05v.802s-1.558-1.998-4.86-1.998c-5.453 0-9.704 4.149-9.704 9.896 0 5.699 4.183 9.897 9.687 9.897 3.353 0 4.843-2.05 4.843-2.05v.851a.677.677 0 0 0 .695.7h4.047V57.407h-4.012a.715.715 0 0 0-.7.7l.004-.014Zm13.397-6.544a3.24 3.24 0 0 1-3.251 3.244 3.241 3.241 0 0 1-3.252-3.248 3.219 3.219 0 0 1 3.252-3.251c1.85.05 3.251 1.5 3.251 3.251v.004Z" clip-rule="evenodd"/><path id="logo-spotify" fill="#fff" d="M23.994 40C10.743 40 0 50.742 0 63.994c0 13.252 10.743 23.993 23.994 23.993 13.253 0 23.994-10.741 23.994-23.993C47.988 50.744 37.247 40 23.994 40V40Zm11.004 34.606a1.495 1.495 0 0 1-2.058.496c-5.633-3.442-12.725-4.221-21.077-2.313a1.496 1.496 0 0 1-.666-2.916c9.14-2.089 16.98-1.19 23.305 2.676.705.432.928 1.352.495 2.057Zm2.936-6.533a1.87 1.87 0 0 1-2.573.616c-6.45-3.964-16.28-5.112-23.91-2.797a1.873 1.873 0 0 1-2.334-1.246 1.873 1.873 0 0 1 1.248-2.333c8.714-2.644 19.547-1.363 26.953 3.188a1.87 1.87 0 0 1 .616 2.572Zm.252-6.803c-7.733-4.594-20.491-5.016-27.875-2.775A2.244 2.244 0 1 1 9.008 54.2c8.476-2.573 22.566-2.076 31.469 3.21a2.241 2.241 0 0 1 .785 3.075 2.242 2.242 0 0 1-3.074.785h-.002Zm27.094.88c-4.143-.988-4.88-1.682-4.88-3.139 0-1.376 1.295-2.302 3.224-2.302 1.868 0 3.719.703 5.661 2.151a.267.267 0 0 0 .204.05.267.267 0 0 0 .18-.11l2.023-2.852a.272.272 0 0 0-.052-.37c-2.312-1.854-4.913-2.755-7.956-2.755-4.473 0-7.599 2.684-7.599 6.525 0 4.119 2.696 5.577 7.355 6.703 3.963.913 4.633 1.678 4.633 3.045 0 1.516-1.352 2.458-3.53 2.458-2.418 0-4.392-.816-6.598-2.724a.269.269 0 0 0-.384.029l-2.27 2.698a.273.273 0 0 0 .026.378c2.568 2.293 5.725 3.502 9.135 3.502 4.819 0 7.933-2.633 7.933-6.71.009-3.44-2.051-5.346-7.097-6.574l-.008-.003Zm18.01-4.086c-2.089 0-3.802.823-5.217 2.509v-1.898a.27.27 0 0 0-.27-.272h-3.71a.27.27 0 0 0-.27.272v21.088c0 .15.121.272.27.272h3.71c.15 0 .27-.123.27-.272v-6.656c1.415 1.585 3.129 2.361 5.217 2.361 3.883 0 7.814-2.988 7.814-8.701.005-5.714-3.926-8.703-7.81-8.703h-.004Zm3.499 8.703c0 2.908-1.791 4.94-4.358 4.94-2.536 0-4.45-2.124-4.45-4.94 0-2.817 1.914-4.94 4.45-4.94 2.524 0 4.358 2.077 4.358 4.94Zm14.386-8.703c-5 0-8.917 3.85-8.917 8.765 0 4.863 3.891 8.67 8.857 8.67 5.017 0 8.945-3.836 8.945-8.732 0-4.88-3.903-8.702-8.885-8.702v-.001Zm0 13.67c-2.66 0-4.665-2.137-4.665-4.968 0-2.845 1.937-4.91 4.605-4.91 2.676 0 4.693 2.137 4.693 4.972 0 2.844-1.949 4.907-4.633 4.907Zm19.56-13.33h-4.082V54.23a.271.271 0 0 0-.27-.272h-3.71a.273.273 0 0 0-.272.272v4.173h-1.783a.27.27 0 0 0-.269.272v3.188c0 .15.12.272.269.272h1.783v8.25c0 3.333 1.659 5.023 4.933 5.023 1.33 0 2.433-.275 3.473-.865a.265.265 0 0 0 .138-.235V71.27a.27.27 0 0 0-.393-.241 4.681 4.681 0 0 1-2.177.524c-1.19 0-1.722-.541-1.722-1.75v-7.668h4.082c.149 0 .27-.122.27-.271v-3.188a.264.264 0 0 0-.267-.272l-.003-.002Zm14.223.015v-.512c0-1.508.579-2.18 1.874-2.18.774 0 1.395.153 2.092.385a.267.267 0 0 0 .243-.038.269.269 0 0 0 .112-.22v-3.126a.27.27 0 0 0-.192-.26c-.734-.22-1.673-.444-3.083-.444-3.424 0-5.238 1.93-5.238 5.578v.785h-1.782a.273.273 0 0 0-.272.272v3.204c0 .15.123.272.272.272h1.782v12.723c0 .152.124.272.273.272h3.707a.27.27 0 0 0 .272-.272V62.136h3.464l5.307 12.722c-.602 1.335-1.195 1.602-2.003 1.602-.653 0-1.344-.195-2.046-.582a.295.295 0 0 0-.215-.02.272.272 0 0 0-.16.146l-1.258 2.76a.27.27 0 0 0 .118.352c1.312.71 2.495 1.014 3.959 1.014 2.739 0 4.255-1.278 5.587-4.71l6.436-16.63a.265.265 0 0 0-.029-.252.265.265 0 0 0-.221-.118h-3.862a.272.272 0 0 0-.258.182l-3.957 11.3-4.332-11.307a.27.27 0 0 0-.252-.175h-6.338Zm-8.246-.016h-3.71a.273.273 0 0 0-.272.272v16.183c0 .152.123.272.272.272h3.71c.149 0 .272-.12.272-.272V58.676c0-.15-.12-.272-.272-.272Zm-1.834-7.369a2.66 2.66 0 1 0-.002 5.32 2.66 2.66 0 0 0 .002-5.32Zm32.498 12.573a2.601 2.601 0 0 1-2.611-2.611 2.625 2.625 0 0 1 2.625-2.624A2.6 2.6 0 0 1 160 60.98a2.626 2.626 0 0 1-2.624 2.626Zm.014-4.976c-1.338 0-2.35 1.063-2.35 2.365 0 1.3 1.006 2.35 2.336 2.35 1.338 0 2.349-1.063 2.349-2.365 0-1.301-1.006-2.35-2.335-2.35Zm.579 2.618.739 1.034h-.625l-.665-.948h-.57v.948h-.521v-2.74h1.22c.639 0 1.058.326 1.058.874.003.45-.258.724-.634.832h-.002Zm-.442-1.236h-.679v.867h.679c.338 0 .542-.166.542-.434 0-.282-.204-.433-.542-.433Z"/></defs></svg>